<svg xmlns="http://www.w3.org/2000/svg" width="88" height="36" fill="none"><path fill="#173F5F" d="M10.216 8.568a9.06 9.06 0 0 1 3.672.756 8.88 8.88 0 0 1 2.988 2.016 8.88 8.88 0 0 1 2.016 2.988 8.81 8.81 0 0 1 .756 3.636v9h-3.132v-2.016a9.786 9.786 0 0 1-2.88 1.764c-1.056.408-2.196.612-3.42.612a9.188 9.188 0 0 1-3.636-.72 10.241 10.241 0 0 1-2.988-2.016 9.765 9.765 0 0 1-2.016-2.952 9.45 9.45 0 0 1-.72-3.672c0-1.296.24-2.508.72-3.636a9.642 9.642 0 0 1 2.016-2.988A9.381 9.381 0 0 1 6.58 9.324a8.81 8.81 0 0 1 3.636-.756Zm0 3.096a6.04 6.04 0 0 0-2.448.504A6.029 6.029 0 0 0 5.752 13.5a6.856 6.856 0 0 0-1.332 2.016 6.04 6.04 0 0 0-.504 2.448c0 .864.168 1.68.504 2.448.336.768.78 1.44 1.332 2.016a6.856 6.856 0 0 0 2.016 1.332 6.04 6.04 0 0 0 2.448.504c.888 0 1.716-.168 2.484-.504a6.386 6.386 0 0 0 1.98-1.332 6.029 6.029 0 0 0 1.332-2.016 6.04 6.04 0 0 0 .504-2.448 6.04 6.04 0 0 0-.504-2.448A6.029 6.029 0 0 0 14.68 13.5a5.652 5.652 0 0 0-1.98-1.332 6.129 6.129 0 0 0-2.484-.504ZM23.077.648h3.06V22.32c0 .552.252 1.02.756 1.404.528.384 1.152.576 1.872.576v3.06a6.24 6.24 0 0 1-2.232-.396 6.197 6.197 0 0 1-1.8-1.08A5.611 5.611 0 0 1 23.51 24.3a4.67 4.67 0 0 1-.432-1.98V.648Zm12.987 18.684a5.09 5.09 0 0 1-1.908-.36A5.442 5.442 0 0 1 32.608 18a5.376 5.376 0 0 1-1.116-1.512 4.863 4.863 0 0 1-.432-1.872 3.37 3.37 0 0 1-.036-.54c0-.24.012-.432.036-.576.024-.648.168-1.26.432-1.836.288-.576.66-1.08 1.116-1.512a5.067 5.067 0 0 1 1.548-1.008 5.09 5.09 0 0 1 1.908-.36h6.912v3.096h-6.912c-.504 0-.948.18-1.332.54-.36.336-.564.768-.612 1.296-.048.24-.048.492 0 .756.048.504.252.936.612 1.296.384.336.828.504 1.332.504h2.484c.672 0 1.308.132 1.908.396.6.24 1.116.576 1.548 1.008.456.432.816.936 1.08 1.512.288.576.444 1.2.468 1.872v1.008c0 .696-.144 1.344-.432 1.944a5.294 5.294 0 0 1-1.08 1.548 4.64 4.64 0 0 1-1.584 1.08c-.6.24-1.248.36-1.944.36H31.42v-3.06h7.092c.48 0 .888-.156 1.224-.468.36-.312.6-.684.72-1.116v-.252a.32.32 0 0 0 .036-.144v-.684c-.024-.552-.228-1.008-.612-1.368-.36-.384-.816-.576-1.368-.576h-2.448Zm25.487-2.808a6.644 6.644 0 0 0-.864-1.872 5.397 5.397 0 0 0-1.332-1.512 6.008 6.008 0 0 0-1.8-1.008 5.964 5.964 0 0 0-2.088-.36c-.744 0-1.452.12-2.124.36a6.124 6.124 0 0 0-1.764 1.008 5.925 5.925 0 0 0-1.368 1.512c-.384.576-.66 1.2-.828 1.872h12.168Zm-6.084 10.908a9.45 9.45 0 0 1-3.672-.72 10.241 10.241 0 0 1-2.988-2.016 10.241 10.241 0 0 1-2.016-2.988 9.188 9.188 0 0 1-.72-3.636c0-1.296.24-2.52.72-3.672a9.642 9.642 0 0 1 2.016-2.988c.864-.84 1.86-1.5 2.988-1.98a9.06 9.06 0 0 1 3.672-.756 8.81 8.81 0 0 1 3.636.756 9.153 9.153 0 0 1 2.988 1.98c.84.84 1.5 1.836 1.98 2.988a9.06 9.06 0 0 1 .756 3.672v.54c0 .192-.024.516-.072.972H49.383a5.91 5.91 0 0 0 .828 1.908c.384.576.84 1.08 1.368 1.512a6.124 6.124 0 0 0 1.764 1.008c.672.24 1.38.36 2.124.36.576 0 1.152-.144 1.728-.432a7.755 7.755 0 0 0 1.656-1.224l2.16 2.16a10.513 10.513 0 0 1-2.628 1.872 6.581 6.581 0 0 1-2.916.684ZM77.721 8.676a8.81 8.81 0 0 1 3.636.756 9.153 9.153 0 0 1 2.988 1.98 8.88 8.88 0 0 1 2.016 2.988 9.06 9.06 0 0 1 .756 3.672 8.81 8.81 0 0 1-.756 3.636 9.381 9.381 0 0 1-2.016 2.988 9.642 9.642 0 0 1-2.988 2.016c-1.128.48-2.34.72-3.636.72a9.697 9.697 0 0 1-3.456-.612 9.529 9.529 0 0 1-2.844-1.8v10.368h-3.096V18.072c0-1.296.24-2.52.72-3.672a9.642 9.642 0 0 1 2.016-2.988c.864-.84 1.86-1.5 2.988-1.98a9.06 9.06 0 0 1 3.672-.756Zm0 3.096a6.04 6.04 0 0 0-2.448.504 6.029 6.029 0 0 0-2.016 1.332 6.514 6.514 0 0 0-1.368 2.016 6.441 6.441 0 0 0-.468 2.448c0 .864.156 1.68.468 2.448.336.768.792 1.44 1.368 2.016a6.856 6.856 0 0 0 2.016 1.332 6.04 6.04 0 0 0 2.448.504 6.04 6.04 0 0 0 2.448-.504 6.856 6.856 0 0 0 2.016-1.332 6.029 6.029 0 0 0 1.332-2.016 6.04 6.04 0 0 0 .504-2.448 6.04 6.04 0 0 0-.504-2.448 6.029 6.029 0 0 0-3.348-3.348 6.04 6.04 0 0 0-2.448-.504Z"/></svg>