<svg xmlns="http://www.w3.org/2000/svg" width="24" height="24" fill="none"><path fill="#00A7CC" d="M6.61 10.781c1.5 2.906 3.702 5.11 6.609 6.61l2.203-2.203c.312-.313.656-.391 1.031-.235 1.125.375 2.313.563 3.563.563.28 0 .515.093.703.28A.954.954 0 0 1 21 16.5v3.516a.955.955 0 0 1-.281.703.955.955 0 0 1-.703.281c-4.688 0-8.703-1.656-12.047-4.969C4.656 12.688 3 8.671 3 3.984c0-.28.094-.515.281-.703A.954.954 0 0 1 3.984 3H7.5c.281 0 .516.094.703.281a.954.954 0 0 1 .281.703c0 1.25.188 2.438.563 3.563.125.406.047.75-.235 1.031L6.61 10.781Z"/></svg>